#!OML:ASF F:\VICON\USERDATA\INSTALL\rory3\rory3.ASF
:FULLY-SPECIFIED
:DEGREES
392
root 3.46184 17.5757 13.2519 -0.53804 184.031 1.48832
lowerback 12.6744 -0.507435 -2.75099
upperback -0.144449 -1.01902 2.00275
thorax -7.19611 -0.393637 3.87939
lowerneck -17.7057 -6.07702 -11.6726
upperneck 29.7156 -10.674 10.0906
head 14.3527 -5.35176 3.98691
rclavicle 4.72114e-016 3.37934e-015
rhumerus -40.1815 -19.1091 -71.3316
rradius 34.0079
rwrist 5.98032
rhand -18.4321 6.6519
rfingers 7.12502
rthumb 7.85331 -23.1822
lclavicle 4.72114e-016 3.37934e-015
lhumerus -36.1197 4.6605 85.6859
lradius 33.0607
lwrist -2.3357
lhand -23.0817 18.6535
lfingers 7.12502
lthumb 3.36422 48.6067
rfemur -13.3981 -12.9167 21.5209
rtibia 40.9687
rfoot -28.1064 12.8403
rtoes -20.6377
lfemur -8.58688 -0.121252 -19.9721
ltibia 32.8938
lfoot -20.6082 -4.35586
ltoes -1.90331
393
root 3.52206 17.5793 13.272 -0.526656 184.326 1.50066
lowerback 12.6705 -0.491314 -2.92537
upperback -0.024994 -1.0298 1.96327
thorax -7.06312 -0.399913 3.93589
lowerneck -17.7588 -6.19797 -11.6592
upperneck 29.4419 -10.865 10.3515
head 14.292 -5.3822 4.04957
rclavicle 1.72694e-015 1.15295e-014
rhumerus -40.2217 -20.1362 -71.1751
rradius 33.7479
rwrist 6.27134
rhand -18.493 6.39199
rfingers 7.12502
rthumb 7.79454 -23.4443
lclavicle 1.72694e-015 1.15295e-014
lhumerus -35.7602 4.28358 85.7153
lradius 33.0677
lwrist -2.35345
lhand -23.2026 19.2437
lfingers 7.12502
lthumb 3.24741 49.1987
rfemur -13.8868 -13.6233 21.4842
rtibia 41.747
rfoot -28.2829 13.7632
rtoes -22.7681
lfemur -8.7338 -0.3209 -19.7073
ltibia 32.839
lfoot -20.4684 -4.64813
ltoes -2.20149
394
root 3.58223 17.5877 13.2923 -0.566153 184.592 1.65743
lowerback 12.707 -0.47563 -2.9115
upperback 0.126014 -1.0159 1.95836
thorax -6.9238 -0.402732 3.9183
lowerneck -17.8945 -6.32962 -11.7001
upperneck 29.2178 -11.0541 10.6224
head 14.2767 -5.41428 4.12494
rclavicle -3.75206e-015 3.18055e-015
rhumerus -40.2054 -21.165 -71.0051
rradius 33.2462
rwrist 6.47973
rhand -18.5307 6.70357
rfingers 7.12502
rthumb 7.75816 -23.1341
lclavicle -3.75206e-015 3.18055e-015
lhumerus -35.3414 3.86741 85.7169
lradius 33.0615
lwrist -2.40672
lhand -23.0704 19.4994
lfingers 7.12502
lthumb 3.37516 49.4525
rfemur -14.2933 -14.2574 21.5814
rtibia 42.4467
rfoot -28.3433 14.5533
rtoes -25.6564
lfemur -8.85178 -0.420123 -19.2917
ltibia 32.8173
lfoot -20.4391 -4.84572
ltoes -2.17524
395
root 3.63987 17.5914 13.3177 -0.616031 184.921 1.82403
lowerback 12.8803 -0.508922 -2.81183
upperback 0.165365 -1.05362 1.95764
thorax -6.97769 -0.425648 3.87182
lowerneck -17.8051 -6.36961 -11.8272
upperneck 29.0236 -11.1457 10.9219
head 14.2185 -5.42952 4.25062
rclavicle -4.34841e-016 -8.54774e-015
rhumerus -40.3483 -21.9986 -70.8142
rradius 32.6974
rwrist 6.52789
rhand -18.7103 7.25172
rfingers 7.12502
rthumb 7.58481 -22.5923
lclavicle -4.34841e-016 -8.54774e-015
lhumerus -35.1553 3.73871 85.5555
lradius 33.1627
lwrist -2.98295
lhand -21.9496 20.7552
lfingers 7.12502
lthumb 4.45748 50.6883
rfemur -14.6871 -14.8963 21.6409
rtibia 43.1046
rfoot -28.1923 15.5009
rtoes -27.7724
lfemur -8.92821 -0.554943 -18.908
ltibia 32.7609
lfoot -20.4448 -4.89598
ltoes -2.43135
396
root 3.69219 17.5993 13.3398 -0.646821 185.275 1.81361
lowerback 13.0263 -0.557198 -2.79792
upperback 0.194386 -1.12524 1.88774
thorax -7.0242 -0.462171 3.80599
lowerneck -17.6976 -6.36585 -11.9875
upperneck 28.8685 -11.1968 11.2714
head 14.174 -5.43022 4.41168
rclavicle -2.52581e-014 -7.35503e-015
rhumerus -40.5408 -22.7344 -70.6951
rradius 32.352
rwrist 6.65245
rhand -18.8773 7.43371
rfingers 7.12502
rthumb 7.42359 -22.416
lclavicle -2.52581e-014 -7.35503e-015
lhumerus -35.0404 3.60594 85.3727
lradius 33.2759
lwrist -3.30906
lhand -21.0814 21.5588
lfingers 7.12502
lthumb 5.29579 51.4727
rfemur -15.0574 -15.5101 21.447
rtibia 43.7413
rfoot -28.0414 16.6518
rtoes -29.7599
lfemur -8.93574 -1.01095 -18.7844
ltibia 32.6279
lfoot -20.1545 -4.76241
ltoes -1.97894
397
root 3.74367 17.6134 13.355 -0.684686 185.405 1.72836
lowerback 13.0711 -0.523469 -2.8571
upperback 0.294958 -1.10083 1.78605
thorax -6.94487 -0.454818 3.72579
lowerneck -17.7895 -6.41564 -12.0076
upperneck 28.8494 -11.2886 11.399
head 14.2125 -5.44997 4.44784
rclavicle -1.77974e-014 1.09332e-014
rhumerus -40.6731 -23.2721 -70.7514
rradius 32.28
rwrist 6.67958
rhand -18.7722 7.11127
rfingers 7.12502
rthumb 7.52499 -22.7349
lclavicle -1.77974e-014 1.09332e-014
lhumerus -34.8106 3.20844 85.3616
lradius 33.3117
lwrist -2.74293
lhand -21.7429 20.8672
lfingers 7.12502
lthumb 4.65705 50.796
rfemur -15.4096 -15.8571 21.1341
rtibia 44.3788
rfoot -27.9592 17.7788
rtoes -31.8381
lfemur -8.82979 -1.54527 -18.7751
ltibia 32.4048
lfoot -19.7136 -4.45973
ltoes -0.871687
398
root 3.79534 17.6263 13.3699 -0.668883 185.405 1.56953
lowerback 13.1137 -0.430105 -3.00389
upperback 0.295128 -1.00494 1.67828
thorax -6.97626 -0.403165 3.67752
lowerneck -17.7308 -6.44934 -11.8971
upperneck 28.8591 -11.332 11.2587
head 14.1917 -5.47406 4.36353
rclavicle -1.06785e-014 -2.23633e-015
rhumerus -40.924 -23.53 -70.8143
rradius 32.2296
rwrist 6.63417
rhand -18.5366 6.7231
rfingers 7.12502
rthumb 7.75239 -23.1148
lclavicle -1.06785e-014 -2.23633e-015
lhumerus -34.6659 2.80805 85.3705
lradius 33.3015
lwrist -2.32023
lhand -22.5466 19.8896
lfingers 7.12502
lthumb 3.8809 49.834
rfemur -15.8259 -15.9592 20.7143
rtibia 45.0216
rfoot -27.5801 19.1256
rtoes -32.2575
lfemur -8.73734 -1.97482 -18.8759
ltibia 32.0976
lfoot -19.4577 -3.79412
ltoes -1.17431
399
root 3.84921 17.6362 13.3877 -0.660853 185.488 1.4048
lowerback 13.221 -0.359527 -3.15607
upperback 0.267077 -0.941285 1.58039
thorax -7.07145 -0.36475 3.65086
lowerneck -17.6025 -6.45798 -11.9004
upperneck 28.8787 -11.3608 11.227
head 14.174 -5.4983 4.34836
rclavicle 1.64929e-015 -3.37934e-015
rhumerus -41.167 -23.7501 -70.8475
rradius 32.0645
rwrist 6.60538
rhand -18.2485 6.84473
rfingers 7.12502
rthumb 8.03052 -22.9827
lclavicle 1.64929e-015 -3.37934e-015
lhumerus -34.4786 2.54286 85.282
lradius 33.1893
lwrist -2.27976
lhand -22.4808 19.8442
lfingers 7.12502
lthumb 3.94447 49.7874
rfemur -16.2003 -15.9753 20.2669
rtibia 45.6347
rfoot -27.0834 20.1618
rtoes -30.8827
lfemur -8.64474 -2.3711 -18.9605
ltibia 31.7446
lfoot -19.2551 -3.13263
ltoes -2.02765
400
root 3.90554 17.6455 13.4044 -0.648372 185.594 1.25055
lowerback 13.2788 -0.301137 -3.32058
upperback 0.288359 -0.895789 1.50525
thorax -7.08411 -0.338313 3.65665
lowerneck -17.5465 -6.48644 -11.9297
upperneck 28.8679 -11.3908 11.2134
head 14.1627 -5.51646 4.34316
rclavicle -5.28954e-015 3.8266e-015
rhumerus -41.2601 -23.9156 -70.9501
rradius 31.8814
rwrist 6.73692
rhand -18.0546 6.89904
rfingers 7.12502
rthumb 8.2176 -22.9212
lclavicle -5.28954e-015 3.8266e-015
lhumerus -34.1464 2.4546 85.1682
lradius 33.0571
lwrist -2.42348
lhand -21.6222 21.7038
lfingers 7.12502
lthumb 4.7736 51.63
rfemur -16.5286 -15.9099 19.837
rtibia 46.2055
rfoot -26.9575 20.0966
rtoes -29.781
lfemur -8.52804 -2.77815 -18.9888
ltibia 31.3719
lfoot -18.9584 -2.73088
ltoes -1.9558
